<!--?xml version="1.0" standalone="no"?-->
              <svg id="sw-js-blob-svg" viewBox="0 0 100 100" xmlns="http://www.w3.org/2000/svg" version="1.1">
                    <defs> 
                        <linearGradient id="sw-gradient" x1="0" x2="1" y1="1" y2="0">
                            <stop id="stop1" stop-color="rgba(250.767, 80.557, 0, 1)" offset="0%"></stop>
                            <stop id="stop2" stop-color="rgba(251, 168, 31, 1)" offset="100%"></stop>
                        </linearGradient>
                    </defs>
                <path fill="url(#sw-gradient)" d="M20,-35.9C25.8,-31.3,30.5,-25.8,34,-19.6C37.6,-13.5,40.1,-6.8,40.6,0.3C41,7.3,39.4,14.6,36.2,21.3C33,28,28.2,34.2,21.9,37.8C15.5,41.4,7.8,42.4,0,42.4C-7.8,42.5,-15.6,41.5,-21.4,37.6C-27.1,33.7,-30.8,26.8,-34.7,20.1C-38.5,13.3,-42.5,6.6,-42.8,-0.2C-43.1,-7,-39.8,-14.1,-35.5,-20C-31.2,-25.9,-25.9,-30.8,-19.8,-35.2C-13.7,-39.7,-6.9,-43.8,0.1,-43.9C7.1,-44.1,14.2,-40.5,20,-35.9Z" width="100%" height="100%" transform="translate(50 50)" stroke-width="0" style="transition: all 0.3s ease 0s;"></path>
              </svg>